# xmcd
#
# Track frame offsets:
#	150
#	26442
#	46593
#	71002
#	89245
#	123856
#	141258
#	153198
#	167443
#	191178
#	222866
#
# Disc length: 3225 seconds
#
# Revision: 0
# Processed by: cddbd v1.5.1PL0 Copyright (c) Steve Scherf et al.
# Submitted via: dBpowerAMP V4.0
#
DISCID=940c970b
DTITLE=Nickolay Sadikov - BLUES HAMMER BAND
DYEAR=2004
DGENRE=Blues
TTITLE0=All That Blues
TTITLE1=I Don't Care
TTITLE2=Lonesome Blues
TTITLE3=Tequila Blues
TTITLE4=Green Bottle Blues
TTITLE5=I Feel So Good
TTITLE6=Crazy Train
TTITLE7=Standin' At The Window
TTITLE8=Charter Flight Blues
TTITLE9=Shake Your Hips
TTITLE10=Lillie Me
EXTD=Nickolay Sadikov - BLUES HAMMER BAND
EXTT0=
EXTT1=
EXTT2=
EXTT3=
EXTT4=
EXTT5=
EXTT6=
EXTT7=
EXTT8=
EXTT9=
EXTT10=
PLAYORDER=
